<?xml version="1.0" encoding="UTF-8"?>
<svg version="1.1" xmlns="http://www.w3.org/2000/svg" width="100" height="100">
<path d="M0 0 C4.07686847 1.69676592 7.86037443 3.80486733 11.6875 6 C12.74590088 6.59143799 13.80430176 7.18287598 14.89477539 7.79223633 C17.94313445 9.50613465 20.97490431 11.24542368 24 13 C25.16885742 13.67748291 25.16885742 13.67748291 26.36132812 14.36865234 C36.71237544 20.42475088 36.71237544 20.42475088 38 23 C38.10956812 24.45915885 38.1590127 25.92307426 38.17700195 27.38623047 C38.19625481 28.74806961 38.19625481 28.74806961 38.21589661 30.13742065 C38.22328354 31.12074371 38.23067047 32.10406677 38.23828125 33.1171875 C38.246353 34.12588898 38.25442474 35.13459045 38.26274109 36.17385864 C38.27658592 38.31071246 38.28730629 40.44758844 38.29516602 42.58447266 C38.31239421 45.85491695 38.35627897 49.12435453 38.40039062 52.39453125 C38.41051601 54.46874255 38.41903259 56.54296246 38.42578125 58.6171875 C38.44328934 59.5964621 38.46079742 60.57573669 38.47883606 61.58468628 C38.45723444 68.33487737 38.45723444 68.33487737 36.31982422 71.4440918 C33.74292486 73.17242053 31.17634709 74.77967416 28.45703125 76.27734375 C26.84538086 77.17163086 26.84538086 77.17163086 25.20117188 78.08398438 C24.08291016 78.69564453 22.96464844 79.30730469 21.8125 79.9375 C20.71357422 80.54529297 19.61464844 81.15308594 18.48242188 81.77929688 C16.32251481 82.97323477 14.15867841 84.16009549 11.99072266 85.33935547 C10.1298546 86.37263094 8.28661832 87.43922688 6.47412109 88.55517578 C2.48731227 90.98457056 -0.95683639 92.89221103 -5.80712891 92.546875 C-10.83288342 91.29351382 -15.22827819 88.55768547 -19.6875 86 C-20.74590088 85.40856201 -21.80430176 84.81712402 -22.89477539 84.20776367 C-25.94313445 82.49386535 -28.97490431 80.75457632 -32 79 C-32.77923828 78.54834473 -33.55847656 78.09668945 -34.36132812 77.63134766 C-44.71237544 71.57524912 -44.71237544 71.57524912 -46 69 C-46.10956812 67.54084115 -46.1590127 66.07692574 -46.17700195 64.61376953 C-46.18983719 63.70587677 -46.20267242 62.79798401 -46.21589661 61.86257935 C-46.22328354 60.87925629 -46.23067047 59.89593323 -46.23828125 58.8828125 C-46.246353 57.87411102 -46.25442474 56.86540955 -46.26274109 55.82614136 C-46.27658592 53.68928754 -46.28730629 51.55241156 -46.29516602 49.41552734 C-46.31239421 46.14508305 -46.35627897 42.87564547 -46.40039062 39.60546875 C-46.41051601 37.53125745 -46.41903259 35.45703754 -46.42578125 33.3828125 C-46.44328934 32.4035379 -46.46079742 31.42426331 -46.47883606 30.41531372 C-46.45723444 23.66512263 -46.45723444 23.66512263 -44.31982422 20.5559082 C-41.74292486 18.82757947 -39.17634709 17.22032584 -36.45703125 15.72265625 C-35.38259766 15.12646484 -34.30816406 14.53027344 -33.20117188 13.91601562 C-32.08291016 13.30435547 -30.96464844 12.69269531 -29.8125 12.0625 C-28.16411133 11.15081055 -28.16411133 11.15081055 -26.48242188 10.22070312 C-24.32251481 9.02676523 -22.15867841 7.83990451 -19.99072266 6.66064453 C-18.1298546 5.62736906 -16.28661832 4.56077312 -14.47412109 3.44482422 C-9.7314054 0.55481137 -5.63161345 -1.40445492 0 0 Z M-17.125 10.5625 C-18.51972534 11.38415649 -18.51972534 11.38415649 -19.94262695 12.22241211 C-21.78997928 13.31138955 -23.63454288 14.40511381 -25.47607422 15.50390625 C-27.62805525 16.77952434 -29.79109146 18.02598571 -31.97265625 19.25 C-33.56400391 20.1471875 -33.56400391 20.1471875 -35.1875 21.0625 C-36.08855469 21.56910156 -36.98960938 22.07570313 -37.91796875 22.59765625 C-40.26633795 23.98759242 -40.26633795 23.98759242 -42 27 C-42.23228154 29.84253384 -42.35202336 32.58467241 -42.37109375 35.4296875 C-42.38012222 36.257034 -42.3891507 37.08438049 -42.39845276 37.9367981 C-42.41295615 39.68683249 -42.42184222 41.43692112 -42.42553711 43.18701172 C-42.43742738 45.8586817 -42.4866028 48.52803673 -42.53710938 51.19921875 C-42.54657468 52.90103041 -42.5538092 54.60285624 -42.55859375 56.3046875 C-42.57812607 57.10067352 -42.59765839 57.89665955 -42.61778259 58.71676636 C-42.58519886 62.7415463 -42.37933294 64.49729498 -39.88989258 67.79638672 C-36.79459079 70.15662951 -33.63282164 72.13438278 -30.203125 73.953125 C-29.25176666 74.47166046 -29.25176666 74.47166046 -28.28118896 75.00067139 C-26.2751542 76.09206756 -24.26294555 77.17141235 -22.25 78.25 C-20.22417807 79.34529856 -18.19970096 80.44302901 -16.17596436 81.54217529 C-14.92099617 82.22272659 -13.66456517 82.9005886 -12.40655518 83.57550049 C-8.10852223 85.89147777 -8.10852223 85.89147777 -7 87 C-0.62106944 88.07682911 3.88711485 84.59480543 9.125 81.4375 C10.05481689 80.889729 10.98463379 80.34195801 11.94262695 79.77758789 C13.78997928 78.68861045 15.63454288 77.59488619 17.47607422 76.49609375 C19.62805525 75.22047566 21.79109146 73.97401429 23.97265625 72.75 C25.03355469 72.151875 26.09445313 71.55375 27.1875 70.9375 C28.08855469 70.43089844 28.98960938 69.92429687 29.91796875 69.40234375 C32.26633795 68.01240758 32.26633795 68.01240758 34 65 C34.23228154 62.15746616 34.35202336 59.41532759 34.37109375 56.5703125 C34.38012222 55.742966 34.3891507 54.91561951 34.39845276 54.0632019 C34.41295615 52.31316751 34.42184222 50.56307888 34.42553711 48.81298828 C34.43742738 46.1413183 34.4866028 43.47196327 34.53710938 40.80078125 C34.54657468 39.09896959 34.5538092 37.39714376 34.55859375 35.6953125 C34.57812607 34.89932648 34.59765839 34.10334045 34.61778259 33.28323364 C34.58519886 29.2584537 34.37933294 27.50270502 31.88989258 24.20361328 C28.79459079 21.84337049 25.63282164 19.86561722 22.203125 18.046875 C21.56888611 17.70118469 20.93464722 17.35549438 20.28118896 16.99932861 C18.2751542 15.90793244 16.26294555 14.82858765 14.25 13.75 C12.22417807 12.65470144 10.19970096 11.55697099 8.17596436 10.45782471 C6.92099617 9.77727341 5.66456517 9.0994114 4.40655518 8.42449951 C0.10852223 6.10852223 0.10852223 6.10852223 -1 5 C-7.37893056 3.92317089 -11.88711485 7.40519457 -17.125 10.5625 Z " fill="#000000" transform="translate(54,4)"/>
<path d="M0 0 C2.8631663 1.9772054 4.98199747 3.62126384 7.0703125 6.4296875 C6.984375 8.37109375 6.984375 8.37109375 6.0703125 10.4296875 C3.92578125 12.203125 3.92578125 12.203125 1.2578125 13.8046875 C0.38511719 14.34867188 -0.48757812 14.89265625 -1.38671875 15.453125 C-3.9296875 16.4296875 -3.9296875 16.4296875 -6.06640625 15.71875 C-6.68128906 15.29335938 -7.29617187 14.86796875 -7.9296875 14.4296875 C-11.61466546 11.97303553 -14.64940536 11.72882259 -18.9296875 12.4296875 C-21.7397221 14.22332661 -23.43909218 15.44849685 -24.9296875 18.4296875 C-25.46334263 24.24314697 -25.46334263 24.24314697 -23.0546875 29.3671875 C-19.79870486 32.52740594 -17.50828017 32.75525358 -12.97265625 32.73046875 C-9.84870653 32.27053734 -8.10969047 30.60969047 -5.9296875 28.4296875 C-1.15359252 30.07147015 2.86414154 32.69515452 7.0703125 35.4296875 C6.2159243 40.50124824 3.07454285 42.54178804 -0.9296875 45.4296875 C-7.44045565 49.41587208 -14.4642302 49.30162634 -21.9296875 48.4296875 C-30.46088028 45.86005112 -35.28024786 40.75710558 -39.8046875 33.3671875 C-42.42656801 26.41213919 -42.08368031 17.36897776 -39.4296875 10.4921875 C-36.28796084 4.5306779 -30.48048333 -0.8065504 -24.09765625 -3.12890625 C-15.5428725 -4.87069105 -7.58690357 -4.43195357 0 0 Z M-30.71484375 7.37109375 C-36.00825331 14.16617978 -36.67705873 19.90532284 -35.9296875 28.4296875 C-34.18299823 35.13830934 -29.75236852 38.97433881 -23.9296875 42.4296875 C-18.53509867 44.22788378 -12.04398144 44.49413315 -6.62109375 42.640625 C-3.44175178 40.90884206 -2.09232251 39.91759252 -0.9296875 36.4296875 C-4.41907599 35.37189637 -4.41907599 35.37189637 -7.765625 36.3828125 C-11.8929086 38.37940457 -16.46032132 37.95435223 -20.9296875 37.4296875 C-25.51241937 35.22015606 -27.67008668 32.92313871 -29.9296875 28.4296875 C-30.75854019 22.88160146 -30.653757 17.95827867 -28.2421875 12.8671875 C-25.04004857 9.49195998 -23.07407868 7.63072417 -18.3046875 7.18359375 C-13.4925551 7.07480884 -10.21508339 7.19104786 -5.9296875 9.4296875 C-3.23975697 9.12590698 -3.23975697 9.12590698 -0.9296875 8.4296875 C-1.90065208 5.61389022 -2.8855814 4.46218673 -5.3046875 2.6796875 C-14.2234651 -0.39575305 -24.09596448 0.1728815 -30.71484375 7.37109375 Z " fill="#000000" transform="translate(64.9296875,27.5703125)"/>
<path d="M0 0 C1.32 0 2.64 0 4 0 C4 1.32 4 2.64 4 4 C5.32 4 6.64 4 8 4 C8 2.68 8 1.36 8 0 C9.32 0 10.64 0 12 0 C12 1.32 12 2.64 12 4 C13.32 4 14.64 4 16 4 C16 5.32 16 6.64 16 8 C14.68 8 13.36 8 12 8 C12 9.32 12 10.64 12 12 C13.32 12 14.64 12 16 12 C16 13.32 16 14.64 16 16 C14.68 16 13.36 16 12 16 C12 17.32 12 18.64 12 20 C10.68 20 9.36 20 8 20 C8 18.68 8 17.36 8 16 C6.68 16 5.36 16 4 16 C4 17.32 4 18.64 4 20 C2.68 20 1.36 20 0 20 C0 18.68 0 17.36 0 16 C-1.32 16 -2.64 16 -4 16 C-4 14.68 -4 13.36 -4 12 C-2.68 12 -1.36 12 0 12 C0 10.68 0 9.36 0 8 C-1.32 8 -2.64 8 -4 8 C-4 6.68 -4 5.36 -4 4 C-2.68 4 -1.36 4 0 4 C0 2.68 0 1.36 0 0 Z M4 8 C4 9.32 4 10.64 4 12 C5.32 12 6.64 12 8 12 C8 10.68 8 9.36 8 8 C6.68 8 5.36 8 4 8 Z " fill="#000000" transform="translate(70,40)"/>
</svg>
